<svg width="21" height="25" viewBox="0 0 21 25" fill="none" xmlns="http://www.w3.org/2000/svg">
<path d="M10.5 1C7.15606 1 4.43555 3.72051 4.43555 7.06445C4.43555 10.4084 7.15606 13.1289 10.5 13.1289C13.8439 13.1289 16.5645 10.4084 16.5645 7.06445C16.5645 3.72051 13.8439 1 10.5 1ZM10.5 11.7812C7.89916 11.7812 5.7832 9.66529 5.7832 7.06445C5.7832 4.46361 7.89916 2.34766 10.5 2.34766C13.1008 2.34766 15.2168 4.46361 15.2168 7.06445C15.2168 9.66529 13.1008 11.7812 10.5 11.7812Z" fill="#A3A3A3" stroke="#A3A3A3" stroke-width="0.5"/>
<path d="M12.3792 14.5215H8.62074C5.51205 14.5215 2.44412 15.9568 0.392578 19.0342V24H20.6074V19.0342C18.5588 15.9612 15.4918 14.5215 12.3792 14.5215ZM19.2598 22.6523H19.2598H1.74023V19.4466C3.31389 17.2026 5.87089 15.8691 8.62078 15.8691H12.3793C15.1292 15.8691 17.6861 17.2026 19.2598 19.4466V22.6523Z" fill="#A3A3A3" stroke="#A3A3A3" stroke-width="0.5"/>
</svg>
