<svg width="26" height="24" viewBox="0 0 26 24" fill="none" xmlns="http://www.w3.org/2000/svg">
<path d="M18.0973 15.8426C18.7007 15.8426 19.1899 15.3534 19.1899 14.7501C19.1899 14.1467 18.7007 13.6575 18.0973 13.6575C17.494 13.6575 17.0048 14.1467 17.0048 14.7501C17.0048 15.3534 17.494 15.8426 18.0973 15.8426Z" fill="#A5A5A5"/>
<path d="M22.8049 5.99481H22.5063V3.09482C22.5063 1.8845 21.5216 0.89978 20.3113 0.89978H4.39057C2.6337 0.89978 1.18517 2.24358 1.01796 3.95723C0.992419 4.07832 1.00151 2.99936 1.00151 19.7111C1.00151 21.5798 2.5218 23.1001 4.39052 23.1001H22.8049C24.0152 23.1001 24.9999 22.1154 24.9999 20.905V8.18985C25 6.97954 24.0153 5.99481 22.8049 5.99481V5.99481ZM4.39057 2.40754H20.3113C20.6903 2.40754 20.9986 2.71587 20.9986 3.09487V5.99486H4.39057C3.38261 5.99486 2.55747 5.19799 2.51149 4.2012C2.55742 3.20437 3.38257 2.40754 4.39057 2.40754V2.40754ZM22.8049 21.5924H4.39057C3.35321 21.5924 2.50927 20.7484 2.50927 19.7111V6.93119C3.04785 7.29196 3.69504 7.50252 4.39057 7.50252H22.8049C23.1839 7.50252 23.4922 7.81085 23.4922 8.18985V11.2461H17.8191C15.887 11.2461 14.3151 12.8179 14.3151 14.75C14.3151 16.6821 15.887 18.2539 17.8191 18.2539H23.4922V20.905C23.4922 21.2841 23.1839 21.5924 22.8049 21.5924V21.5924ZM23.4922 16.7463H17.8191C16.7184 16.7463 15.8228 15.8508 15.8228 14.75C15.8228 13.6493 16.7183 12.7538 17.8191 12.7538H23.4922V16.7463Z" fill="#A5A5A5" stroke="#A5A5A5" stroke-width="0.5"/>
</svg>
